<svg width="556" height="646" fill="none" xmlns="http://www.w3.org/2000/svg"><g clip-path="url(#clip0_2_2)"><path d="M38.5 406.773h-37v-37c0-6.6 5.4-12 12-12h36v38c0 6.065-4.935 11-11 11zm506-357h-37v-37c0-6.6 5.4-12 12-12h36v38c0 6.065-4.935 11-11 11z" fill="#2F2E41"/><path d="M285.241 629.768l-13.327-.001-6.34-51.405 19.67.002-.003 51.404z" fill="#DD7272"/><path d="M285.71 643.671l-40.982-.002v-.518c0-8.809 7.142-15.951 15.951-15.951h.001l7.486-5.679 13.967 5.68h3.578l-.001 16.47zm-8.915-279.208L268 395s-19 99.935-14 113.935S262.685 611 262.685 611h26.016s3.504-22.341 3.401-25.703C292 581.935 298 527.935 290 519.935l35-88 55-46-21.567-26.771-81.638 5.299z" fill="#2F2E41"/><path opacity=".5" d="M404 414v-16l-16-22c-6.6 0-12 5.4-12 12v54c0 6.6 5.4 12 12 12h54c6.6 0 12-5.4 12-12l-22-15h-15c-7.168 0-13-5.832-13-13z" fill="#7CB3CA"/><path opacity=".5" d="M481.22 281.5H154.78c-10.631 0-19.28-8.649-19.28-19.28V148.78c0-10.631 8.649-19.28 19.28-19.28h326.44c10.631 0 19.28 8.649 19.28 19.28v113.44c0 10.631-8.649 19.28-19.28 19.28z" fill="#BAC"/><path d="M340.78 260h-213c-10.906 0-19.78-8.874-19.78-19.78V126.78c0-10.907 8.873-19.78 19.78-19.78h326.44c10.906 0 19.78 8.874 19.78 19.78C474 200.238 414.238 260 340.78 260zm-213-151c-9.804 0-17.78 7.976-17.78 17.78v113.44c0 9.804 7.976 17.78 17.78 17.78h213C413.135 258 472 199.135 472 126.78c0-9.804-7.976-17.78-17.78-17.78H127.78z" fill="#0367A6"/><path d="M367.8 377.044l-2.117-29.963 16.948-3.597 1.111 31.758a10.067 10.067 0 011.701 2.429c2.48 4.969.462 11.007-4.507 13.486-4.968 2.479-11.006.462-13.485-4.507-1.581-3.168-1.327-6.768.349-9.606z" fill="#DD7272"/><path d="M340.895 184.923l-6.52 4.859 16.024 91.379-2.342 5.594 3.125 2.939.958 7.028L364.758 362H384c-.282-2.268 5.281-4.592 5-7-.321-2.753-2.575-6.918-2.895-9.827-.099-.9-.199-1.808-.298-2.722-.146-1.341-.292-2.695-.438-4.062-.113-1.059-.227-2.124-.34-3.197-2.461-23.216-3.472-49.341-4.893-71.9-1.812-28.76-4.289-51.724-11.282-55.476l-27.959-22.893z" fill="#3F3D56"/><path d="M389.535 628.212c2.065.13 3.207-2.437 1.644-3.933l-.155-.618.062-.149c2.089-4.981 9.169-4.947 11.241.042 1.838 4.428 4.179 8.864 4.756 13.546a18.032 18.032 0 01-.317 6.201c4.308-9.411 6.575-19.687 6.575-30.021a69.91 69.91 0 00-.432-7.783 71.679 71.679 0 00-.995-6.31c-2.306-11.278-7.299-22.019-14.5-30.99-3.462-1.893-6.349-4.851-8.093-8.397-.627-1.278-1.118-2.654-1.35-4.056.394.052 1.485-5.948 1.188-6.317.549-.833 1.532-1.247 2.132-2.06 2.982-4.043 7.091-3.337 9.236 2.157 4.582 2.313 4.627 6.149 1.815 9.837-1.789 2.347-2.035 5.523-3.604 8.035.161.207.329.407.491.614a73.621 73.621 0 017.681 12.168c-.61-4.766.29-10.508 1.826-14.209 1.748-4.218 5.025-7.769 7.911-11.415 3.466-4.38 10.573-2.468 11.184 3.083l.017.161c-.429.242-.849.499-1.259.77-2.339 1.547-1.531 5.174 1.241 5.602l.063.01a30.699 30.699 0 01-.807 4.579c3.702 14.316-4.29 19.53-15.702 19.764-.252.129-.497.258-.749.381a73.134 73.134 0 012.764 9.979 73.771 73.771 0 011.279 9.049c.297 3.83.272 7.679-.051 11.503l.019-.135c.82-4.212 3.107-8.145 6.427-10.871 4.945-4.062 11.932-5.558 17.268-8.824 2.568-1.572 5.859.459 5.411 3.437l-.022.143c-.794.323-1.569.697-2.318 1.117-.429.242-.849.499-1.259.77-2.34 1.547-1.531 5.174 1.241 5.602l.063.009.129.02a30.653 30.653 0 01-5.639 8.829c-2.314 12.497-12.256 13.683-22.89 10.044h-.006a75.146 75.146 0 01-5.045 14.726h-18.02c-.065-.2-.123-.407-.181-.607 1.667.103 3.346.006 4.987-.297-1.338-1.641-2.674-3.295-4.011-4.935a.908.908 0 01-.084-.097c-.679-.84-1.363-1.673-2.041-2.512l-.001-.001a30.02 30.02 0 01.879-7.64l.001-.001z" fill="#CCC"/><path d="M187.983 644.355c0 .66.53 1.19 1.19 1.19h253.29c.66 0 1.19-.53 1.19-1.19 0-.66-.53-1.19-1.19-1.19h-253.29c-.66 0-1.19.53-1.19 1.19z" fill="#CCC"/><path d="M22.69 0C10.159 0 0 10.159 0 22.69V407h2V157.68C2 71.7 71.7 2 157.68 2l397.684-.364L555 0H22.69z" fill="#2E3441"/><path d="M188 255c0 1.34-.04 2.68-.11 4h-61.11c-10.37 0-18.78-9.13-18.78-19.5v-56.06c2.63-.29 5.3-.44 8-.44 39.76 0 72 32.24 72 72zm227.551-72.004H220.182a6.041 6.041 0 00-6.036 6.036 6.04 6.04 0 006.036 6.036h195.369a6.041 6.041 0 006.036-6.036 6.042 6.042 0 00-6.036-6.036zm-134.795-33.844h-60.574a6.04 6.04 0 00-6.036 6.036 6.04 6.04 0 006.036 6.036h60.574a6.04 6.04 0 006.036-6.036 6.04 6.04 0 00-6.036-6.036z" fill="#7CB3CA"/><path d="M340.241 629.768l-13.327-.001-6.34-51.405 19.67.002-.003 51.404z" fill="#DD7272"/><path d="M340.71 643.671l-40.982-.002v-.518c0-8.809 7.142-15.951 15.951-15.951h.001l7.486-5.679 13.967 5.68h3.578l-.001 16.47zM312.5 376.5l7 61L304 501l13.5 110.5 25 2s12-81 1-109l28-110-21-12-38-6z" fill="#2F2E41"/><path d="M338.583 170.386c-4.412-4.71-2.901-9.001-9.722-10.203-4.624-.815-10.189.002-14.924-.002-11.9-.011-13.689 6.569-20.54 15.311C275.75 198.009 292.168 216.079 288 243c-3.873 25.014 6.506 38.636 1.909 63.718-2.188 11.939-6.429 28.75-13.851 42.48-4.098 7.582-6.064 16.401-5.058 24.802.889 7.435 96.907 8.302 99.564 6.472 3.128-2.154 2.07-6.772 2.376-9.989.828-8.716 1.67-14.823-.423-23.725-1.967-8.366-1.931-18.086-1.958-26.732-.026-8.336-11.767 5.426-11.085-2.896.87-10.614 2.594-20.999 4.494-31.516 1.471-8.141 2.047-16.506 4.208-24.477 2.489-9.182 5.456-17.259 5.556-26.888.078-7.496 1.887-17.975-1.093-24.842-4.39-10.117-13.244-19.227-20.712-27.33-3.714-4.029-7.401-6.651-11.644-9.99" fill="#3F3D56"/><path d="M187.849 216.49l27.035 13.091-5.324 16.487-28.09-14.858c-.943.228-1.935.325-2.954.265-5.544-.325-9.774-5.082-9.448-10.626.325-5.543 5.082-9.773 10.625-9.448 3.536.208 6.53 2.222 8.156 5.089z" fill="#DD7272"/><path d="M270.775 291.212C268.186 289.841 228.74 264.685 208 253c-.389-.219-3.066 1.215-3.439 1.005-.57-.321-.028-2.705-.561-3.005-1.155-.651-3.312.823-4.269.284C196.266 249.331 197 241 197 241l7-17 11.444-.365L218 228l5.426-.654L227 232l41.192 16.162c1.601-21.478 10.19-39.197 19.494-56.53l3.761.71c9.484 1.792 15.811 10.819 14.259 20.345l-10.863 66.676a16.466 16.466 0 01-11.455 13.055 16.522 16.522 0 01-12.613-1.206z" fill="#3F3D56"/><path d="M311.671 153.862c16.902 0 30.604-13.702 30.604-30.605s-13.702-30.605-30.604-30.605c-16.903 0-30.605 13.702-30.605 30.605s13.702 30.605 30.605 30.605z" fill="#DD7272"/><path d="M345.639 124.188c-1.069-.43-2.14-.79-3.069-1.02 5.251 6.611-3.614 12.413-4.99 19.18.114 5.372-2.822 7.808-7.961 9.28l.121-.42c-41.791 10.704 2.293-24.93-30.381-25.911-4.98.291 1.671-15.367-3.45-14.579-13 2-13.606.625-14.999 10.001-2.531.829-6.001-3.001-5.59-7.001-.927-1.684-3.347-.606-4.32-3.161-1.03-1.949-2.99-14.7 1.479-8.739.296-4.07-.855-12.387 4.221-5.28-.661-3.234 2.145-1.834 3.319.09.83-1.89 1.66-3.77 2.48-5.66-.23.85-.08 1.78.341 2.62 2.358-5.012 5.96-5.466 11.579-6.88-.065 1.535-.03 3.33.18 4.72 6.526-10.812 22.329-7.791 28.63 1.76 3.993.912 5.68-.47 9.68.53 10.748 2.686 15.662 19.259 12.73 30.47z" fill="#2F2E41"/><path d="M427 413h37v-37c0-6.6-5.4-12-12-12h-36v38c0 6.065 4.935 11 11 11z" fill="#7CB3CA"/><path d="M156.92 63.855c4.67 0 8.456-3.87 8.456-8.645 0-4.774-3.786-8.645-8.456-8.645-4.671 0-8.457 3.87-8.457 8.645 0 4.775 3.786 8.645 8.457 8.645zm29.214 0c4.67 0 8.456-3.87 8.456-8.645 0-4.774-3.786-8.645-8.456-8.645-4.671 0-8.457 3.87-8.457 8.645 0 4.775 3.786 8.645 8.457 8.645z" fill="#0367A6"/><path d="M393.5 84.273c-.827 0-1.5.672-1.5 1.5v10c0 .827.673 1.5 1.5 1.5h10c.827 0 1.5-.673 1.5-1.5v-10c0-.828-.673-1.5-1.5-1.5h-10zm23 0c-.827 0-1.5.672-1.5 1.5v10c0 .827.673 1.5 1.5 1.5h10c.827 0 1.5-.673 1.5-1.5v-10c0-.828-.673-1.5-1.5-1.5h-10zm23 0c-.827 0-1.5.672-1.5 1.5v10c0 .827.673 1.5 1.5 1.5h10c.827 0 1.5-.673 1.5-1.5v-10c0-.828-.673-1.5-1.5-1.5h-10z" fill="#7CB3CA"/></g><defs><clipPath id="clip0_2_2"><path fill="#fff" d="M0 0h555.5v645.545H0z"/></clipPath></defs></svg>